<svg xmlns="http://www.w3.org/2000/svg" xmlns:xlink="http://www.w3.org/1999/xlink" viewBox="0 0 94.12 92.33"><defs><style>.cls-1{mix-blend-mode:difference;filter:url(#luminosity-noclip);}.cls-2{mask:url(#mask);}.cls-3{fill:none;stroke:#000;stroke-miterlimit:10;}</style><filter id="luminosity-noclip" x="1.3" y="0.26" width="91.92" height="91.92" filterUnits="userSpaceOnUse" color-interpolation-filters="sRGB"><feFlood flood-color="#fff" result="bg"/><feBlend in="SourceGraphic" in2="bg"/></filter><mask id="mask" x="1.3" y="0.26" width="91.92" height="91.92" maskUnits="userSpaceOnUse"><g class="cls-1"><path d="M12.9,47.42A63.11,63.11,0,0,0,30.59,64.54a34.06,34.06,0,0,0,11.79,4.81,26.64,26.64,0,0,0,14.07-1.16A42.07,42.07,0,0,0,69,61,65.93,65.93,0,0,0,82.37,46.37l.09-.15a56.26,56.26,0,0,0-4.53-6A63.16,63.16,0,0,0,65.86,29.13a38.15,38.15,0,0,0-11-5.38,26.76,26.76,0,0,0-17.4.72,43.23,43.23,0,0,0-12.34,7.35A66.35,66.35,0,0,0,12.4,45.74a4.83,4.83,0,0,1-.34.45v.07Zm62.74-1.2A64.06,64.06,0,0,1,64.85,57.14c4.12-7.3,4.12-14.53,0-21.84A64.81,64.81,0,0,1,75.64,46.22ZM47.29,31.15a15.07,15.07,0,1,1-15.1,15A15.1,15.1,0,0,1,47.29,31.15ZM29.72,35.27c-4.13,7.32-4.13,14.56,0,21.87A63.71,63.71,0,0,1,18.91,46.22,64,64,0,0,1,29.72,35.27Z"/><path d="M45.53,55.89c0-1.16-.34-1.77-1.13-2.06s-1.44-.06-2.23.83l-1.24-.89A2.91,2.91,0,0,0,43,51a2.78,2.78,0,0,0-1.6-2.62c-1.13-.6-2.15-.42-3.5.58A9.66,9.66,0,0,1,41,38.64a9.84,9.84,0,1,1,4.53,17.25Z"/></g></mask></defs><g id="Layer_1" data-name="Layer 1"><g id="MaFbcG.tif"><path d="M79.26,46.19v.07c-.1.13-.21.26-.3.4A60.07,60.07,0,0,1,67.38,59.32,39,39,0,0,1,56.16,66a24.38,24.38,0,0,1-15.82.67,34.86,34.86,0,0,1-10-4.9,58,58,0,0,1-11-10.07,53.59,53.59,0,0,1-4.12-5.47l.09-.13a60.23,60.23,0,0,1,12.19-13.3,38.15,38.15,0,0,1,11.37-6.54A24.22,24.22,0,0,1,51.7,25.2a30.84,30.84,0,0,1,10.72,4.37A57.28,57.28,0,0,1,78.5,45.13Zm-32,13.73a13.7,13.7,0,1,0-13.7-13.71A13.72,13.72,0,0,0,47.24,59.92Zm16-3.74a58.2,58.2,0,0,0,9.83-10,58,58,0,0,0-9.81-9.93C67,43,67,49.53,63.21,56.18Zm-31.93,0c-3.74-6.64-3.74-13.22,0-19.85a58,58,0,0,0-9.82,9.93A59.08,59.08,0,0,0,31.28,56.15Z"/><path d="M48.84,37.44c0,1.05.31,1.6,1,1.87s1.31,0,2-.76l1.13.81a2.67,2.67,0,0,0-1.84,2.55,2.54,2.54,0,0,0,1.46,2.38c1,.54,2,.38,3.18-.53A8.79,8.79,0,0,1,53,53.12a8.95,8.95,0,1,1-4.12-15.68Z"/></g></g><g id="Layer_2" data-name="Layer 2"><g class="cls-2"><line class="cls-3" x1="35.95" y1="12.28" x2="81.21" y2="57.54"/><line class="cls-3" x1="30.29" y1="17.94" x2="75.55" y2="63.19"/><line class="cls-3" x1="24.64" y1="23.6" x2="69.89" y2="68.85"/><line class="cls-3" x1="18.98" y1="29.25" x2="64.24" y2="74.51"/><line class="cls-3" x1="13.32" y1="34.91" x2="58.58" y2="80.16"/><line class="cls-3" x1="7.67" y1="40.57" x2="52.92" y2="85.82"/><line class="cls-3" x1="41.61" y1="6.63" x2="86.86" y2="51.88"/><line class="cls-3" x1="7.67" y1="51.88" x2="52.92" y2="6.63"/><line class="cls-3" x1="13.32" y1="57.54" x2="58.58" y2="12.28"/><line class="cls-3" x1="18.98" y1="63.19" x2="64.24" y2="17.94"/><line class="cls-3" x1="24.64" y1="68.85" x2="69.89" y2="23.6"/><line class="cls-3" x1="30.29" y1="74.51" x2="75.55" y2="29.25"/><line class="cls-3" x1="35.95" y1="80.16" x2="81.21" y2="34.91"/><line class="cls-3" x1="41.61" y1="85.82" x2="86.86" y2="40.57"/><rect class="cls-3" x="15.26" y="14.22" width="64" height="64" transform="translate(-18.84 46.96) rotate(-45)"/></g></g></svg>