<?xml version="1.0" encoding="utf-8"?>
<!-- Generator: Adobe Illustrator 25.0.1, SVG Export Plug-In . SVG Version: 6.00 Build 0)  -->
<svg version="1.1" id="Layer_1" xmlns="http://www.w3.org/2000/svg" xmlns:xlink="http://www.w3.org/1999/xlink" x="0px" y="0px"
	 viewBox="0 0 336.2 202.2" style="enable-background:new 0 0 336.2 202.2;" xml:space="preserve">
<style type="text/css">
	.st0{font-family:'MyriadPro-Regular';}
	.st1{font-size:10px;}
	.st2{fill:#BAD6DD;}
	.st3{fill:#DBBABD;}
	.st4{fill:#231F20;}
	.st5{font-family:'Helvetica-Light';}
	.st6{fill:none;stroke:#000000;stroke-miterlimit:10;}
	.st7{fill:none;stroke:#231F20;stroke-miterlimit:10;}
	.st8{font-family:'Helvetica-Bold';}
	.st9{fill:#FFFFFF;}
	.st10{fill:#FF0000;}
	:root {
		background-color: #fff;
	}

	@media (prefers-color-scheme: dark){
	.st0{fill: #fff;}
	.st4{fill: #fff;}
	:root {background-color: #111;}
	}
</style>
<text transform="matrix(1 0 0 1 36.625 195.7175)" class="st0 st1">(a) Retrieve-then-rank</text>
<text transform="matrix(1 0 0 1 194.8714 195.7175)" class="st0 st1">(b) Unified retrieve-and-rank</text>
<g id="retrieve_x5F_then_x5F_rank">
	<g>
		<path class="st2" d="M19.8,174.6H147c4.8,0,8.7-3.9,8.7-8.7V67.4c0-4.8-3.9-8.7-8.7-8.7H19.8c-4.8,0-8.7,3.9-8.7,8.7v98.5
			C11.2,170.7,15,174.6,19.8,174.6z"/>
	</g>
	<g>
		<path class="st3" d="M19.8,55.5H147c4.8,0,8.7-3.9,8.7-8.7V16.3c0-4.8-3.9-8.7-8.7-8.7H19.8c-4.8,0-8.7,3.9-8.7,8.7v30.5
			C11.2,51.6,15,55.5,19.8,55.5z"/>
	</g>
	<g>
		<path class="st4" d="M162.9,1.3V182H1.3V1.3H162.9 M164.2,0H0v183.2h164.2V0L164.2,0z"/>
	</g>
	<text transform="matrix(1 0 0 1 46.3338 78.8528)" class="st5 st1">query</text>
	<g>
		<rect x="87.5" y="66.1" class="st6" width="46.3" height="19.6"/>
		<text transform="matrix(1 0 0 1 92.8006 78.853)" class="st5 st1">Retrieve</text>
	</g>
	<g>
		<rect x="87.5" y="102.4" class="st6" width="46.3" height="19.6"/>
		<text transform="matrix(1 0 0 1 98.51 115.18)" class="st5 st1">Rank</text>
	</g>
	<g>
		<ellipse class="st6" cx="110.6" cy="20.5" rx="23.1" ry="7.6"/>
		<path class="st6" d="M87.5,20.5v21.2c0,4.2,10.4,7.6,23.1,7.6s23.1-3.4,23.1-7.6V20.5"/>
		<text transform="matrix(1 0 0 1 98.5101 40.1657)" class="st5 st1">Index</text>
	</g>
	<g>
		<polyline class="st7" points="92.8,142.7 92.8,139.7 133.8,139.7 133.8,161.7 131.1,161.7 		"/>
		<polyline class="st7" points="90.2,145.6 90.2,142.7 131.1,142.7 131.1,164.7 128.5,164.7 		"/>
		<rect x="87.5" y="145.6" class="st7" width="41" height="22.1"/>
		<text transform="matrix(1 0 0 1 91.4573 159.6232)" class="st5 st1">Results</text>
	</g>
	<g>
		<g>
			<line class="st6" x1="73.5" y1="75.9" x2="82.5" y2="75.9"/>
			<g>
				<polygon points="80.5,77.6 82.2,75.9 80.5,74.2 81.9,74.2 83.6,75.9 81.9,77.6 				"/>
			</g>
		</g>
	</g>
	<g>
		<g>
			<line class="st6" x1="110.6" y1="85.7" x2="110.6" y2="99.6"/>
			<g>
				<polygon points="108.9,97.6 110.6,99.3 112.3,97.6 112.3,99.1 110.6,100.7 108.9,99.1 				"/>
			</g>
		</g>
	</g>
	<g>
		<g>
			<line class="st6" x1="100.2" y1="65.4" x2="100.2" y2="51.3"/>
			<g>
				<polygon points="101.9,53.2 100.2,51.6 98.5,53.2 98.5,51.8 100.2,50.1 101.9,51.8 				"/>
			</g>
		</g>
	</g>
	<g>
		<g>
			<line class="st6" x1="120.2" y1="48.6" x2="120.2" y2="63.2"/>
			<g>
				<polygon points="118.5,61.2 120.2,62.9 121.9,61.2 121.9,62.7 120.2,64.3 118.5,62.7 				"/>
			</g>
		</g>
	</g>
	<g>
		<g>
			<line class="st6" x1="110.6" y1="122" x2="110.6" y2="135"/>
			<g>
				<polygon points="108.9,133 110.6,134.7 112.3,133 112.3,134.5 110.6,136.2 108.9,134.5 				"/>
			</g>
		</g>
	</g>
	<g>
		<g>
			<polyline class="st6" points="133.8,32.2 148.5,32.2 148.5,112.2 137.4,112.2 			"/>
			<g>
				<polygon points="139.4,110.5 137.7,112.2 139.4,113.9 138,113.9 136.3,112.2 138,110.5 				"/>
			</g>
		</g>
	</g>
	<text transform="matrix(1 0 0 1 18.2866 150.7133)"><tspan x="0" y="0" class="st8 st1">Search</tspan><tspan x="0" y="12" class="st8 st1">Engine</tspan></text>
	<text transform="matrix(1 0 0 1 18.2868 33.7891)"><tspan x="0" y="0" class="st8 st1">The </tspan><tspan x="0" y="12" class="st8 st1">Internet</tspan></text>
</g>
<g id="unified_x5F_retrieve_x5F_rank">
	<g>
		<path class="st2" d="M191.8,174.3H319c4.8,0,8.7-3.9,8.7-8.7V67.1c0-4.8-3.9-8.7-8.7-8.7H191.8c-4.8,0-8.7,3.9-8.7,8.7v98.5
			C183.2,170.4,187.1,174.3,191.8,174.3z"/>
	</g>
	<g>
		<path class="st3" d="M191.8,55.2H319c4.8,0,8.7-3.9,8.7-8.7V16c0-4.8-3.9-8.7-8.7-8.7H191.8c-4.8,0-8.7,3.9-8.7,8.7v30.5
			C183.2,51.3,187.1,55.2,191.8,55.2z"/>
	</g>
	<g>
		<path class="st4" d="M334.9,1v180.7H173.3V1H334.9 M336.2-0.3H172v183.2h164.2V-0.3L336.2-0.3z"/>
	</g>
	<text transform="matrix(1 0 0 1 218.3501 78.5513)" class="st5 st1">query</text>
	<g>
		<rect x="259.5" y="65.8" class="st6" width="46.3" height="19.6"/>
		<text transform="matrix(1 0 0 1 268.583 78.5515)" class="st5 st1">Model</text>
	</g>
	<g>
		<polyline class="st7" points="264.8,105.6 264.8,102.6 305.8,102.6 305.8,124.7 303.1,124.7 		"/>
		<polyline class="st7" points="262.2,108.6 262.2,105.6 303.1,105.6 303.1,127.7 300.5,127.7 		"/>
		<rect x="259.5" y="108.6" class="st7" width="41" height="22.1"/>
		<text transform="matrix(1 0 0 1 263.4735 122.589)" class="st5 st1">Results</text>
	</g>
	<g>
		<g>
			<line class="st6" x1="245.5" y1="75.6" x2="254.5" y2="75.6"/>
			<g>
				<polygon points="252.5,77.3 254.2,75.6 252.5,73.9 253.9,73.9 255.6,75.6 253.9,77.3 				"/>
			</g>
		</g>
	</g>
	<g>
		<g>
			<line class="st6" x1="282.7" y1="85.4" x2="282.7" y2="99.3"/>
			<g>
				<polygon points="281,97.3 282.7,99 284.4,97.3 284.4,98.8 282.7,100.4 281,98.8 				"/>
			</g>
		</g>
	</g>
	<text transform="matrix(1 0 0 1 190.3028 150.4118)"><tspan x="0" y="0" class="st8 st1">Search</tspan><tspan x="0" y="12" class="st8 st1">Engine</tspan></text>
	<text transform="matrix(1 0 0 1 190.303 33.4876)"><tspan x="0" y="0" class="st8 st1">The </tspan><tspan x="0" y="12" class="st8 st1">Internet</tspan></text>
	<g>
		<path d="M275.9,26.5c0,0.2-0.1,0.5-0.4,0.9h-0.3l-0.3,0.3l0,0.3l-0.3,0.3l-0.5,0.7l-1,0.8l-0.3,0.3l-0.3-0.1
			c-0.1-0.1-0.2-0.1-0.2-0.1c-0.1,0-0.3,0.1-0.5,0.3c0.2,0.1,0.2,0.2,0.2,0.3c0,0.1,0,0.1,0,0.1l-1.4,1.7c-0.1,0.1-0.1,0.2-0.1,0.3
			c0,0.3,0.2,0.7,0.6,1.1l-0.3,0.1c0,0.3,0.1,0.5,0.4,0.7c-0.2,0.4-0.4,0.6-0.7,0.6h-0.1l-0.9-0.2c-0.4-0.1-0.7-0.2-0.7-0.3
			l-0.1-0.5l-0.2-0.2l0-0.2v-0.1l0.3-0.2V33l0-0.2l0.5-0.5l0.9-1.4l1-0.9c0.6-0.5,0.9-0.8,1.1-0.9c0.4-0.2,0.7-0.4,0.7-0.5l0.2-0.7
			l0.3-0.8l-0.1-0.4l-0.1-0.2c-0.1-0.2-0.2-0.4-0.3-0.5c-0.1-0.2-0.1-0.2-0.2-0.3c-0.1,0-0.1-0.1-0.1-0.1l-0.2-0.3l-0.3,0.1
			l-1.5-0.6l-0.3-0.1l0.1-0.4l-0.3-0.1c-0.1,0-0.2,0.1-0.4,0.2l-0.1,0.2l-0.3,0l-1.5,0.1l-0.7-0.1c-0.3,0-0.8,0.3-1.6,0.7
			c-0.3,0.2-0.4,0.3-0.4,0.4c0,0.1,0.1,0.3,0.2,0.5l0.1,0.3l-0.2,0.3c-0.4,0.5-0.6,0.7-0.6,0.7l-0.3,0.1l-0.4,0.3
			c0,0.1-0.1,0.1-0.2,0.1l-0.3,0c-0.3,0-0.4-0.1-0.5-0.2c-0.1-0.1-0.1-0.2-0.1-0.5c0-0.4,0.1-0.7,0.3-0.9l0.5-0.5l0.2-0.3l0.5-0.3
			l1-0.9l1-0.5l0.7-0.3l0.6-0.1l0.7-0.3h0.7l0.5-0.1c0.2,0.1,0.3,0.2,0.4,0.2l0.4-0.1l2,0.1c0.3,0,0.6,0.1,0.7,0.2l0.5,0.4
			c0.1,0.1,0.4,0.2,0.9,0.3l0.3,0.1c0.1,0.2,0.3,0.5,0.7,1C275.8,25.9,275.9,26.2,275.9,26.5z M271.9,42.2l-0.3,0.3l-0.2,0.4
			l-0.8,0.6l-0.2,0.3c-0.2-0.1-0.4-0.1-0.4-0.2l-0.4-0.5l-0.6-0.6l-0.4-0.5c0,0,0,0,0,0s0,0,0,0l-0.5-0.2l0.1-0.2l0.3-0.2l0.9-0.5
			l0.4-0.4l0.3-0.2l0.4,0.4l1.3,1c0.1,0.1,0.1,0.2,0.1,0.3L271.9,42.2z"/>
		<path d="M290.9,26.5c0,0.2-0.1,0.5-0.4,0.9h-0.3l-0.3,0.3l0,0.3l-0.3,0.3l-0.5,0.7l-1,0.8l-0.3,0.3l-0.3-0.1
			c-0.1-0.1-0.2-0.1-0.2-0.1c-0.1,0-0.3,0.1-0.5,0.3c0.2,0.1,0.2,0.2,0.2,0.3c0,0.1,0,0.1,0,0.1l-1.4,1.7c-0.1,0.1-0.1,0.2-0.1,0.3
			c0,0.3,0.2,0.7,0.6,1.1l-0.3,0.1c0,0.3,0.1,0.5,0.4,0.7c-0.2,0.4-0.4,0.6-0.7,0.6h-0.1l-0.9-0.2c-0.4-0.1-0.7-0.2-0.7-0.3
			l-0.1-0.5l-0.2-0.2l0-0.2v-0.1l0.3-0.2V33l0-0.2l0.5-0.5l0.9-1.4l1-0.9c0.6-0.5,0.9-0.8,1.1-0.9c0.4-0.2,0.7-0.4,0.7-0.5l0.2-0.7
			l0.3-0.8l-0.1-0.4l-0.1-0.2c-0.1-0.2-0.2-0.4-0.3-0.5c-0.1-0.2-0.1-0.2-0.2-0.3c-0.1,0-0.1-0.1-0.1-0.1l-0.2-0.3l-0.3,0.1
			l-1.5-0.6l-0.3-0.1l0.1-0.4l-0.3-0.1c-0.1,0-0.2,0.1-0.4,0.2l-0.1,0.2l-0.3,0l-1.5,0.1l-0.7-0.1c-0.3,0-0.8,0.3-1.6,0.7
			c-0.3,0.2-0.4,0.3-0.4,0.4c0,0.1,0.1,0.3,0.2,0.5l0.1,0.3l-0.2,0.3c-0.4,0.5-0.6,0.7-0.6,0.7l-0.3,0.1l-0.4,0.3
			c0,0.1-0.1,0.1-0.2,0.1l-0.3,0c-0.3,0-0.4-0.1-0.5-0.2c-0.1-0.1-0.1-0.2-0.1-0.5c0-0.4,0.1-0.7,0.3-0.9l0.5-0.5l0.2-0.3l0.5-0.3
			l1-0.9l1-0.5l0.7-0.3l0.6-0.1l0.7-0.3h0.7l0.5-0.1c0.2,0.1,0.3,0.2,0.4,0.2l0.4-0.1l2,0.1c0.3,0,0.6,0.1,0.7,0.2l0.5,0.4
			c0.1,0.1,0.4,0.2,0.9,0.3l0.3,0.1c0.1,0.2,0.3,0.5,0.7,1C290.7,25.9,290.9,26.2,290.9,26.5z M286.9,42.2l-0.3,0.3l-0.2,0.4
			l-0.8,0.6l-0.2,0.3c-0.2-0.1-0.4-0.1-0.4-0.2l-0.4-0.5l-0.6-0.6l-0.4-0.5c0,0,0,0,0,0s0,0,0,0l-0.5-0.2l0.1-0.2l0.3-0.2l0.9-0.5
			l0.4-0.4l0.3-0.2l0.4,0.4l1.3,1c0.1,0.1,0.1,0.2,0.1,0.3L286.9,42.2z"/>
		<path d="M305.8,26.5c0,0.2-0.1,0.5-0.4,0.9h-0.3l-0.3,0.3l0,0.3l-0.3,0.3L304,29l-1,0.8l-0.3,0.3l-0.3-0.1
			c-0.1-0.1-0.2-0.1-0.2-0.1c-0.1,0-0.3,0.1-0.5,0.3c0.2,0.1,0.2,0.2,0.2,0.3c0,0.1,0,0.1,0,0.1l-1.4,1.7c-0.1,0.1-0.1,0.2-0.1,0.3
			c0,0.3,0.2,0.7,0.6,1.1l-0.3,0.1c0,0.3,0.1,0.5,0.4,0.7c-0.2,0.4-0.4,0.6-0.7,0.6h-0.1l-0.9-0.2c-0.4-0.1-0.7-0.2-0.7-0.3
			l-0.1-0.5l-0.2-0.2l0-0.2v-0.1l0.3-0.2V33l0-0.2l0.5-0.5l0.9-1.4l1-0.9c0.6-0.5,0.9-0.8,1.1-0.9c0.4-0.2,0.7-0.4,0.7-0.5l0.2-0.7
			l0.3-0.8l-0.1-0.4l-0.1-0.2c-0.1-0.2-0.2-0.4-0.3-0.5c-0.1-0.2-0.1-0.2-0.2-0.3c-0.1,0-0.1-0.1-0.1-0.1l-0.2-0.3l-0.3,0.1
			l-1.5-0.6l-0.3-0.1l0.1-0.4l-0.3-0.1c-0.1,0-0.2,0.1-0.4,0.2l-0.1,0.2l-0.3,0l-1.5,0.1l-0.7-0.1c-0.3,0-0.8,0.3-1.6,0.7
			c-0.3,0.2-0.4,0.3-0.4,0.4c0,0.1,0.1,0.3,0.2,0.5l0.1,0.3l-0.2,0.3c-0.4,0.5-0.6,0.7-0.6,0.7l-0.3,0.1l-0.4,0.3
			c0,0.1-0.1,0.1-0.2,0.1l-0.3,0c-0.3,0-0.4-0.1-0.5-0.2c-0.1-0.1-0.1-0.2-0.1-0.5c0-0.4,0.1-0.7,0.3-0.9l0.5-0.5l0.2-0.3l0.5-0.3
			l1-0.9l1-0.5l0.7-0.3l0.6-0.1l0.7-0.3h0.7l0.5-0.1c0.2,0.1,0.3,0.2,0.4,0.2l0.4-0.1l2,0.1c0.3,0,0.6,0.1,0.7,0.2l0.5,0.4
			c0.1,0.1,0.4,0.2,0.9,0.3l0.3,0.1c0.1,0.2,0.3,0.5,0.7,1C305.7,25.9,305.8,26.2,305.8,26.5z M301.8,42.2l-0.3,0.3l-0.2,0.4
			l-0.8,0.6l-0.2,0.3c-0.2-0.1-0.4-0.1-0.4-0.2l-0.4-0.5l-0.6-0.6l-0.4-0.5c0,0,0,0,0,0s0,0,0,0l-0.5-0.2l0.1-0.2l0.3-0.2l0.9-0.5
			l0.4-0.4l0.3-0.2l0.4,0.4l1.3,1c0.1,0.1,0.1,0.2,0.1,0.3L301.8,42.2z"/>
	</g>
	<g>
		<path class="st9" d="M272.5,24.8c0,0.2-0.1,0.5-0.4,0.9h-0.3l-0.3,0.3l0,0.3l-0.3,0.3l-0.5,0.7l-1,0.8l-0.3,0.3l-0.3-0.1
			c-0.1-0.1-0.2-0.1-0.2-0.1c-0.1,0-0.3,0.1-0.5,0.3c0.2,0.1,0.2,0.2,0.2,0.3c0,0.1,0,0.1,0,0.1l-1.4,1.7c-0.1,0.1-0.1,0.2-0.1,0.3
			c0,0.3,0.2,0.7,0.6,1.1l-0.3,0.1c0,0.3,0.1,0.5,0.4,0.7c-0.2,0.4-0.4,0.6-0.7,0.6h-0.1l-0.9-0.2c-0.4-0.1-0.7-0.2-0.7-0.3
			l-0.1-0.5l-0.2-0.2l0-0.2v-0.1l0.3-0.2v-0.2l0-0.2l0.5-0.5l0.9-1.4l1-0.9c0.6-0.5,0.9-0.8,1.1-0.9c0.4-0.2,0.7-0.4,0.7-0.5
			l0.2-0.7l0.3-0.8l-0.1-0.4L270,25c-0.1-0.2-0.2-0.4-0.3-0.5c-0.1-0.2-0.1-0.2-0.2-0.3c-0.1,0-0.1-0.1-0.1-0.1l-0.2-0.3l-0.3,0.1
			l-1.5-0.6l-0.3-0.1l0.1-0.4l-0.3-0.1c-0.1,0-0.2,0.1-0.4,0.2l-0.1,0.2l-0.3,0l-1.5,0.1l-0.7-0.1c-0.3,0-0.8,0.3-1.6,0.7
			c-0.3,0.2-0.4,0.3-0.4,0.4c0,0.1,0.1,0.3,0.2,0.5l0.1,0.3l-0.2,0.3c-0.4,0.5-0.6,0.7-0.6,0.7l-0.3,0.1l-0.4,0.3
			c0,0.1-0.1,0.1-0.2,0.1l-0.3,0c-0.3,0-0.4-0.1-0.5-0.2c-0.1-0.1-0.1-0.2-0.1-0.5c0-0.4,0.1-0.7,0.3-0.9l0.5-0.5l0.2-0.3l0.5-0.3
			l1-0.9l1-0.5l0.7-0.3l0.6-0.1l0.7-0.3h0.7l0.5-0.1c0.2,0.1,0.3,0.2,0.4,0.2l0.4-0.1l2,0.1c0.3,0,0.6,0.1,0.7,0.2l0.5,0.4
			c0.1,0.1,0.4,0.2,0.9,0.3l0.3,0.1c0.1,0.2,0.3,0.5,0.7,1C272.4,24.2,272.5,24.5,272.5,24.8z M268.5,40.5l-0.3,0.3l-0.2,0.4
			l-0.8,0.6L267,42c-0.2-0.1-0.4-0.1-0.4-0.2l-0.4-0.5l-0.6-0.6l-0.4-0.5c0,0,0,0,0,0s0,0,0,0l-0.5-0.2l0.1-0.2l0.3-0.2l0.9-0.5
			l0.4-0.4l0.3-0.2l0.4,0.4l1.3,1c0.1,0.1,0.1,0.2,0.1,0.3L268.5,40.5z"/>
		<path class="st9" d="M287.5,24.8c0,0.2-0.1,0.5-0.4,0.9h-0.3l-0.3,0.3l0,0.3l-0.3,0.3l-0.5,0.7l-1,0.8l-0.3,0.3l-0.3-0.1
			c-0.1-0.1-0.2-0.1-0.2-0.1c-0.1,0-0.3,0.1-0.5,0.3c0.2,0.1,0.2,0.2,0.2,0.3c0,0.1,0,0.1,0,0.1l-1.4,1.7c-0.1,0.1-0.1,0.2-0.1,0.3
			c0,0.3,0.2,0.7,0.6,1.1l-0.3,0.1c0,0.3,0.1,0.5,0.4,0.7c-0.2,0.4-0.4,0.6-0.7,0.6H282l-0.9-0.2c-0.4-0.1-0.7-0.2-0.7-0.3l-0.1-0.5
			l-0.2-0.2l0-0.2v-0.1l0.3-0.2v-0.2l0-0.2l0.5-0.5l0.9-1.4l1-0.9c0.6-0.5,0.9-0.8,1.1-0.9c0.4-0.2,0.7-0.4,0.7-0.5l0.2-0.7l0.3-0.8
			l-0.1-0.4l-0.1-0.2c-0.1-0.2-0.2-0.4-0.3-0.5c-0.1-0.2-0.1-0.2-0.2-0.3c-0.1,0-0.1-0.1-0.1-0.1l-0.2-0.3l-0.3,0.1l-1.5-0.6
			l-0.3-0.1l0.1-0.4l-0.3-0.1c-0.1,0-0.2,0.1-0.4,0.2l-0.1,0.2l-0.3,0l-1.5,0.1l-0.7-0.1c-0.3,0-0.8,0.3-1.6,0.7
			c-0.3,0.2-0.4,0.3-0.4,0.4c0,0.1,0.1,0.3,0.2,0.5l0.1,0.3l-0.2,0.3c-0.4,0.5-0.6,0.7-0.6,0.7l-0.3,0.1l-0.4,0.3
			c0,0.1-0.1,0.1-0.2,0.1l-0.3,0c-0.3,0-0.4-0.1-0.5-0.2c-0.1-0.1-0.1-0.2-0.1-0.5c0-0.4,0.1-0.7,0.3-0.9l0.5-0.5l0.2-0.3l0.5-0.3
			l1-0.9l1-0.5l0.7-0.3l0.6-0.1l0.7-0.3h0.7l0.5-0.1c0.2,0.1,0.3,0.2,0.4,0.2l0.4-0.1l2,0.1c0.3,0,0.6,0.1,0.7,0.2l0.5,0.4
			c0.1,0.1,0.4,0.2,0.9,0.3l0.3,0.1c0.1,0.2,0.3,0.5,0.7,1C287.3,24.2,287.5,24.5,287.5,24.8z M283.5,40.5l-0.3,0.3l-0.2,0.4
			l-0.8,0.6l-0.2,0.3c-0.2-0.1-0.4-0.1-0.4-0.2l-0.4-0.5l-0.6-0.6l-0.4-0.5c0,0,0,0,0,0s0,0,0,0l-0.5-0.2l0.1-0.2l0.3-0.2l0.9-0.5
			l0.4-0.4l0.3-0.2l0.4,0.4l1.3,1c0.1,0.1,0.1,0.2,0.1,0.3L283.5,40.5z"/>
		<path class="st9" d="M302.4,24.8c0,0.2-0.1,0.5-0.4,0.9h-0.3l-0.3,0.3l0,0.3l-0.3,0.3l-0.5,0.7l-1,0.8l-0.3,0.3l-0.3-0.1
			c-0.1-0.1-0.2-0.1-0.2-0.1c-0.1,0-0.3,0.1-0.5,0.3c0.2,0.1,0.2,0.2,0.2,0.3c0,0.1,0,0.1,0,0.1l-1.4,1.7c-0.1,0.1-0.1,0.2-0.1,0.3
			c0,0.3,0.2,0.7,0.6,1.1l-0.3,0.1c0,0.3,0.1,0.5,0.4,0.7c-0.2,0.4-0.4,0.6-0.7,0.6H297l-0.9-0.2c-0.4-0.1-0.7-0.2-0.7-0.3l-0.1-0.5
			l-0.2-0.2l0-0.2v-0.1l0.3-0.2v-0.2l0-0.2l0.5-0.5l0.9-1.4l1-0.9c0.6-0.5,0.9-0.8,1.1-0.9c0.4-0.2,0.7-0.4,0.7-0.5l0.2-0.7l0.3-0.8
			l-0.1-0.4l-0.1-0.2c-0.1-0.2-0.2-0.4-0.3-0.5c-0.1-0.2-0.1-0.2-0.2-0.3c-0.1,0-0.1-0.1-0.1-0.1l-0.2-0.3l-0.3,0.1l-1.5-0.6
			l-0.3-0.1l0.1-0.4l-0.3-0.1c-0.1,0-0.2,0.1-0.4,0.2l-0.1,0.2l-0.3,0l-1.5,0.1l-0.7-0.1c-0.3,0-0.8,0.3-1.6,0.7
			c-0.3,0.2-0.4,0.3-0.4,0.4c0,0.1,0.1,0.3,0.2,0.5l0.1,0.3l-0.2,0.3c-0.4,0.5-0.6,0.7-0.6,0.7l-0.3,0.1l-0.4,0.3
			c0,0.1-0.1,0.1-0.2,0.1l-0.3,0c-0.3,0-0.4-0.1-0.5-0.2c-0.1-0.1-0.1-0.2-0.1-0.5c0-0.4,0.1-0.7,0.3-0.9l0.5-0.5l0.2-0.3l0.5-0.3
			l1-0.9l1-0.5l0.7-0.3l0.6-0.1l0.7-0.3h0.7l0.5-0.1c0.2,0.1,0.3,0.2,0.4,0.2l0.4-0.1l2,0.1c0.3,0,0.6,0.1,0.7,0.2l0.5,0.4
			c0.1,0.1,0.4,0.2,0.9,0.3l0.3,0.1c0.1,0.2,0.3,0.5,0.7,1C302.3,24.2,302.4,24.5,302.4,24.8z M298.4,40.5l-0.3,0.3l-0.2,0.4
			l-0.8,0.6l-0.2,0.3c-0.2-0.1-0.4-0.1-0.4-0.2l-0.4-0.5l-0.6-0.6l-0.4-0.5c0,0,0,0,0,0s0,0,0,0l-0.5-0.2l0.1-0.2l0.3-0.2l0.9-0.5
			l0.4-0.4l0.3-0.2l0.4,0.4l1.3,1c0.1,0.1,0.1,0.2,0.1,0.3L298.4,40.5z"/>
	</g>
	<g>
		<path class="st10" d="M274.4,25.4c0,0.2-0.1,0.5-0.4,0.9h-0.3l-0.3,0.3l0,0.3l-0.3,0.3l-0.5,0.7l-1,0.8l-0.3,0.3l-0.3-0.1
			c-0.1-0.1-0.2-0.1-0.2-0.1c-0.1,0-0.3,0.1-0.5,0.3c0.2,0.1,0.2,0.2,0.2,0.3c0,0.1,0,0.1,0,0.1l-1.4,1.7c-0.1,0.1-0.1,0.2-0.1,0.3
			c0,0.3,0.2,0.7,0.6,1.1l-0.3,0.1c0,0.3,0.1,0.5,0.4,0.7c-0.2,0.4-0.4,0.6-0.7,0.6h-0.1l-0.9-0.2c-0.4-0.1-0.7-0.2-0.7-0.3
			l-0.1-0.5l-0.2-0.2l0-0.2v-0.1l0.3-0.2v-0.2l0-0.2l0.5-0.5l0.9-1.4l1-0.9c0.6-0.5,0.9-0.8,1.1-0.9c0.4-0.2,0.7-0.4,0.7-0.5
			l0.2-0.7l0.3-0.8l-0.1-0.4l-0.1-0.2c-0.1-0.2-0.2-0.4-0.3-0.5c-0.1-0.2-0.1-0.2-0.2-0.3c-0.1,0-0.1-0.1-0.1-0.1l-0.2-0.3l-0.3,0.1
			l-1.5-0.6l-0.3-0.1l0.1-0.4l-0.3-0.1c-0.1,0-0.2,0.1-0.4,0.2l-0.1,0.2l-0.3,0l-1.5,0.1l-0.7-0.1c-0.3,0-0.8,0.3-1.6,0.7
			c-0.3,0.2-0.4,0.3-0.4,0.4c0,0.1,0.1,0.3,0.2,0.5l0.1,0.3l-0.2,0.3c-0.4,0.5-0.6,0.7-0.6,0.7l-0.3,0.1l-0.4,0.3
			c0,0.1-0.1,0.1-0.2,0.1l-0.3,0c-0.3,0-0.4-0.1-0.5-0.2c-0.1-0.1-0.1-0.2-0.1-0.5c0-0.4,0.1-0.7,0.3-0.9l0.5-0.5l0.2-0.3l0.5-0.3
			l1-0.9l1-0.5l0.7-0.3l0.6-0.1l0.7-0.3h0.7l0.5-0.1c0.2,0.1,0.3,0.2,0.4,0.2l0.4-0.1l2,0.1c0.3,0,0.6,0.1,0.7,0.2l0.5,0.4
			c0.1,0.1,0.4,0.2,0.9,0.3l0.3,0.1c0.1,0.2,0.3,0.5,0.7,1C274.2,24.8,274.4,25.1,274.4,25.4z M270.4,41.1l-0.3,0.3l-0.2,0.4
			l-0.8,0.6l-0.2,0.3c-0.2-0.1-0.4-0.1-0.4-0.2l-0.4-0.5l-0.6-0.6l-0.4-0.5c0,0,0,0,0,0s0,0,0,0l-0.5-0.2l0.1-0.2l0.3-0.2l0.9-0.5
			l0.4-0.4l0.3-0.2l0.4,0.4l1.3,1c0.1,0.1,0.1,0.2,0.1,0.3L270.4,41.1z"/>
		<path class="st10" d="M289.3,25.4c0,0.2-0.1,0.5-0.4,0.9h-0.3l-0.3,0.3l0,0.3l-0.3,0.3l-0.5,0.7l-1,0.8l-0.3,0.3l-0.3-0.1
			c-0.1-0.1-0.2-0.1-0.2-0.1c-0.1,0-0.3,0.1-0.5,0.3c0.2,0.1,0.2,0.2,0.2,0.3c0,0.1,0,0.1,0,0.1l-1.4,1.7c-0.1,0.1-0.1,0.2-0.1,0.3
			c0,0.3,0.2,0.7,0.6,1.1l-0.3,0.1c0,0.3,0.1,0.5,0.4,0.7c-0.2,0.4-0.4,0.6-0.7,0.6h-0.1l-0.9-0.2c-0.4-0.1-0.7-0.2-0.7-0.3
			l-0.1-0.5l-0.2-0.2l0-0.2v-0.1l0.3-0.2v-0.2l0-0.2l0.5-0.5l0.9-1.4l1-0.9c0.6-0.5,0.9-0.8,1.1-0.9c0.4-0.2,0.7-0.4,0.7-0.5
			l0.2-0.7l0.3-0.8l-0.1-0.4l-0.1-0.2c-0.1-0.2-0.2-0.4-0.3-0.5c-0.1-0.2-0.1-0.2-0.2-0.3c-0.1,0-0.1-0.1-0.1-0.1l-0.2-0.3l-0.3,0.1
			l-1.5-0.6l-0.3-0.1l0.1-0.4l-0.3-0.1c-0.1,0-0.2,0.1-0.4,0.2l-0.1,0.2l-0.3,0l-1.5,0.1l-0.7-0.1c-0.3,0-0.8,0.3-1.6,0.7
			c-0.3,0.2-0.4,0.3-0.4,0.4c0,0.1,0.1,0.3,0.2,0.5l0.1,0.3l-0.2,0.3c-0.4,0.5-0.6,0.7-0.6,0.7l-0.3,0.1l-0.4,0.3
			c0,0.1-0.1,0.1-0.2,0.1l-0.3,0c-0.3,0-0.4-0.1-0.5-0.2c-0.1-0.1-0.1-0.2-0.1-0.5c0-0.4,0.1-0.7,0.3-0.9l0.5-0.5l0.2-0.3l0.5-0.3
			l1-0.9l1-0.5l0.7-0.3l0.6-0.1l0.7-0.3h0.7l0.5-0.1c0.2,0.1,0.3,0.2,0.4,0.2l0.4-0.1l2,0.1c0.3,0,0.6,0.1,0.7,0.2L287,23
			c0.1,0.1,0.4,0.2,0.9,0.3l0.3,0.1c0.1,0.2,0.3,0.5,0.7,1C289.2,24.8,289.3,25.1,289.3,25.4z M285.3,41.1l-0.3,0.3l-0.2,0.4
			l-0.8,0.6l-0.2,0.3c-0.2-0.1-0.4-0.1-0.4-0.2l-0.4-0.5l-0.6-0.6l-0.4-0.5c0,0,0,0,0,0s0,0,0,0l-0.5-0.2l0.1-0.2l0.3-0.2l0.9-0.5
			l0.4-0.4l0.3-0.2l0.4,0.4l1.3,1c0.1,0.1,0.1,0.2,0.1,0.3L285.3,41.1z"/>
		<path class="st10" d="M304.2,25.4c0,0.2-0.1,0.5-0.4,0.9h-0.3l-0.3,0.3l0,0.3l-0.3,0.3l-0.5,0.7l-1,0.8l-0.3,0.3l-0.3-0.1
			c-0.1-0.1-0.2-0.1-0.2-0.1c-0.1,0-0.3,0.1-0.5,0.3c0.2,0.1,0.2,0.2,0.2,0.3c0,0.1,0,0.1,0,0.1l-1.4,1.7c-0.1,0.1-0.1,0.2-0.1,0.3
			c0,0.3,0.2,0.7,0.6,1.1l-0.3,0.1c0,0.3,0.1,0.5,0.4,0.7c-0.2,0.4-0.4,0.6-0.7,0.6h-0.1l-0.9-0.2c-0.4-0.1-0.7-0.2-0.7-0.3
			l-0.1-0.5l-0.2-0.2l0-0.2v-0.1l0.3-0.2v-0.2l0-0.2l0.5-0.5l0.9-1.4l1-0.9c0.6-0.5,0.9-0.8,1.1-0.9c0.4-0.2,0.7-0.4,0.7-0.5
			l0.2-0.7l0.3-0.8l-0.1-0.4l-0.1-0.2c-0.1-0.2-0.2-0.4-0.3-0.5c-0.1-0.2-0.1-0.2-0.2-0.3c-0.1,0-0.1-0.1-0.1-0.1l-0.2-0.3l-0.3,0.1
			l-1.5-0.6l-0.3-0.1l0.1-0.4l-0.3-0.1c-0.1,0-0.2,0.1-0.4,0.2l-0.1,0.2l-0.3,0l-1.5,0.1l-0.7-0.1c-0.3,0-0.8,0.3-1.6,0.7
			c-0.3,0.2-0.4,0.3-0.4,0.4c0,0.1,0.1,0.3,0.2,0.5l0.1,0.3l-0.2,0.3c-0.4,0.5-0.6,0.7-0.6,0.7l-0.3,0.1l-0.4,0.3
			c0,0.1-0.1,0.1-0.2,0.1l-0.3,0c-0.3,0-0.4-0.1-0.5-0.2c-0.1-0.1-0.1-0.2-0.1-0.5c0-0.4,0.1-0.7,0.3-0.9l0.5-0.5l0.2-0.3l0.5-0.3
			l1-0.9l1-0.5l0.7-0.3l0.6-0.1l0.7-0.3h0.7l0.5-0.1c0.2,0.1,0.3,0.2,0.4,0.2l0.4-0.1l2,0.1c0.3,0,0.6,0.1,0.7,0.2L302,23
			c0.1,0.1,0.4,0.2,0.9,0.3l0.3,0.1c0.1,0.2,0.3,0.5,0.7,1C304.1,24.8,304.2,25.1,304.2,25.4z M300.2,41.1l-0.3,0.3l-0.2,0.4
			l-0.8,0.6l-0.2,0.3c-0.2-0.1-0.4-0.1-0.4-0.2l-0.4-0.5l-0.6-0.6l-0.4-0.5c0,0,0,0,0,0s0,0,0,0l-0.5-0.2l0.1-0.2l0.3-0.2l0.9-0.5
			l0.4-0.4l0.3-0.2l0.4,0.4l1.3,1c0.1,0.1,0.1,0.2,0.1,0.3L300.2,41.1z"/>
	</g>
</g>
</svg>
